<svg width="217" height="69" viewBox="0 0 217 69" fill="none" xmlns="http://www.w3.org/2000/svg">
<g clip-path="url(#clip0_890_2648)">
<path d="M79.7442 53.3613C79.7442 54.1563 79.6117 54.8812 79.3467 55.5359C79.0817 56.1751 78.7076 56.7285 78.2243 57.1961C77.7566 57.6482 77.1876 57.999 76.5173 58.2484C75.8626 58.4978 75.1377 58.6225 74.3427 58.6225C73.5788 58.6225 72.8773 58.49 72.2382 58.225C71.599 57.9444 71.0456 57.5625 70.578 57.0792C70.1103 56.5804 69.744 55.988 69.479 55.3021C69.2295 54.6006 69.1048 53.8367 69.1048 53.0105V47.8662C69.1048 47.0556 69.2373 46.3073 69.5024 45.6214C69.783 44.9199 70.1571 44.3276 70.6247 43.8443C71.108 43.3455 71.677 42.9557 72.3317 42.6751C72.9865 42.3945 73.6957 42.2542 74.4596 42.2542C74.974 42.2542 75.4417 42.3088 75.8626 42.4179C76.2835 42.5115 76.6654 42.6362 77.0084 42.7921C77.3513 42.9479 77.6475 43.1272 77.8969 43.3299C78.1619 43.5169 78.3802 43.6962 78.5517 43.8677C78.879 44.195 78.879 44.5224 78.5517 44.8498L78.0138 45.3876C77.858 45.5435 77.7099 45.6292 77.5696 45.6448C77.4293 45.6448 77.2656 45.5591 77.0785 45.3876C76.8759 45.2005 76.5641 44.9823 76.1432 44.7329C75.7379 44.4834 75.1767 44.3587 74.4596 44.3587C73.9608 44.3587 73.5165 44.4523 73.1268 44.6393C72.7526 44.8108 72.4253 45.0602 72.1447 45.3876C71.8796 45.6994 71.677 46.0735 71.5367 46.51C71.3964 46.9309 71.3262 47.383 71.3262 47.8662V53.0105C71.3262 54.055 71.5835 54.9046 72.0979 55.5593C72.6123 56.1984 73.3606 56.518 74.3427 56.518C75.4027 56.518 76.1978 56.2296 76.7278 55.6528C77.2578 55.0605 77.5228 54.2966 77.5228 53.3613V53.1742C77.5228 53.0495 77.5072 52.9638 77.476 52.917C77.4449 52.8702 77.3903 52.8313 77.3124 52.8001L73.2671 50.5085C73.0956 50.3994 72.9787 50.2591 72.9163 50.0876C72.8695 49.9161 72.9007 49.7369 73.0098 49.5498L73.3606 48.9418C73.4541 48.7548 73.5866 48.6379 73.7581 48.5911C73.9452 48.5287 74.1244 48.5521 74.2959 48.6612L79.2532 51.514C79.4558 51.6387 79.5883 51.7634 79.6507 51.8881C79.713 51.9973 79.7442 52.1609 79.7442 52.3792V53.3613ZM97.4174 58.3887C97.2615 58.5134 97.0822 58.5679 96.8796 58.5524C96.6925 58.5368 96.5132 58.4822 96.3417 58.3887L89.5372 54.4135C89.4281 54.3512 89.3268 54.3512 89.2332 54.4135C89.1553 54.4759 89.1007 54.5538 89.0696 54.6474L88.1108 57.8275C88.0017 58.2016 87.7367 58.3887 87.3158 58.3887H86.17C85.718 58.3887 85.5543 58.1704 85.679 57.7339L90.3556 43.1194C90.4336 42.87 90.5349 42.7063 90.6596 42.6284C90.7999 42.5348 90.9792 42.4881 91.1974 42.4881H92.8343C93.0525 42.4881 93.224 42.5348 93.3487 42.6284C93.489 42.7063 93.5981 42.87 93.676 43.1194L98.1422 57.1026C98.2514 57.4611 98.189 57.7417 97.9552 57.9444L97.4174 58.3887ZM92.2497 45.4577C92.2029 45.2863 92.125 45.2005 92.0158 45.2005C91.9067 45.2005 91.8288 45.2863 91.782 45.4577L89.9347 51.6309C89.8724 51.8336 89.8646 51.9895 89.9113 52.0986C89.9581 52.1921 90.0361 52.2701 90.1452 52.3324L94.5412 54.9046C94.7127 55.0137 94.8374 55.0293 94.9154 54.9513C94.9933 54.8578 95.0167 54.7565 94.9855 54.6474L92.2497 45.4577ZM105.814 58.3887C105.596 58.3887 105.424 58.3263 105.299 58.2016C105.175 58.0769 105.112 57.9054 105.112 57.6872V43.1896C105.112 42.9713 105.175 42.7998 105.299 42.6751C105.424 42.5504 105.596 42.4881 105.814 42.4881H106.632C106.85 42.4881 107.022 42.5504 107.147 42.6751C107.271 42.7998 107.334 42.9713 107.334 43.1896V56.0503C107.334 56.2062 107.412 56.2842 107.568 56.2842H113.951C114.169 56.2842 114.341 56.3465 114.466 56.4712C114.59 56.596 114.653 56.7674 114.653 56.9857V57.6872C114.653 57.9054 114.59 58.0769 114.466 58.2016C114.341 58.3263 114.169 58.3887 113.951 58.3887H105.814ZM131.867 58.3887C131.711 58.5134 131.531 58.5679 131.329 58.5524C131.142 58.5368 130.962 58.4822 130.791 58.3887L123.986 54.4135C123.877 54.3512 123.776 54.3512 123.682 54.4135C123.604 54.4759 123.55 54.5538 123.519 54.6474L122.56 57.8275C122.451 58.2016 122.186 58.3887 121.765 58.3887H120.619C120.167 58.3887 120.003 58.1704 120.128 57.7339L124.805 43.1194C124.883 42.87 124.984 42.7063 125.109 42.6284C125.249 42.5348 125.428 42.4881 125.647 42.4881H127.283C127.502 42.4881 127.673 42.5348 127.798 42.6284C127.938 42.7063 128.047 42.87 128.125 43.1194L132.591 57.1026C132.701 57.4611 132.638 57.7417 132.404 57.9444L131.867 58.3887ZM126.699 45.4577C126.652 45.2863 126.574 45.2005 126.465 45.2005C126.356 45.2005 126.278 45.2863 126.231 45.4577L124.384 51.6309C124.322 51.8336 124.314 51.9895 124.361 52.0986C124.407 52.1921 124.485 52.2701 124.594 52.3324L128.99 54.9046C129.162 55.0137 129.287 55.0293 129.365 54.9513C129.442 54.8578 129.466 54.7565 129.435 54.6474L126.699 45.4577ZM149.032 55.8165C149.188 55.9724 149.258 56.1439 149.242 56.3309C149.227 56.518 149.156 56.6739 149.032 56.7986C148.533 57.2975 147.948 57.7261 147.278 58.0847C146.608 58.4432 145.742 58.6225 144.682 58.6225C143.919 58.6225 143.209 58.49 142.555 58.225C141.9 57.9444 141.331 57.5625 140.848 57.0792C140.38 56.5804 140.006 55.988 139.725 55.3021C139.46 54.6006 139.328 53.8367 139.328 53.0105V47.8662C139.328 47.0556 139.46 46.3073 139.725 45.6214C140.006 44.9199 140.38 44.3276 140.848 43.8443C141.331 43.3455 141.9 42.9557 142.555 42.6751C143.209 42.3945 143.919 42.2542 144.682 42.2542C145.197 42.2542 145.664 42.3088 146.085 42.4179C146.506 42.5115 146.888 42.6362 147.231 42.7921C147.574 42.9479 147.87 43.1272 148.12 43.3299C148.385 43.5169 148.603 43.6962 148.774 43.8677C149.102 44.195 149.102 44.5224 148.774 44.8498L148.237 45.3876C148.081 45.5435 147.933 45.6292 147.792 45.6448C147.652 45.6448 147.488 45.5591 147.301 45.3876C147.099 45.2005 146.787 44.9823 146.366 44.7329C145.961 44.4834 145.399 44.3587 144.682 44.3587C144.184 44.3587 143.739 44.4523 143.35 44.6393C142.975 44.8108 142.648 45.0602 142.367 45.3876C142.102 45.6994 141.9 46.0735 141.759 46.51C141.619 46.9309 141.549 47.383 141.549 47.8662V53.0105C141.549 54.055 141.822 54.9046 142.367 55.5593C142.929 56.1984 143.7 56.518 144.682 56.518C145.368 56.518 145.945 56.3933 146.413 56.1439C146.896 55.8789 147.286 55.6139 147.582 55.3489C147.722 55.2241 147.878 55.154 148.05 55.1384C148.237 55.1228 148.408 55.193 148.564 55.3489L149.032 55.8165ZM160.362 58.3887C160.143 58.3887 159.972 58.3263 159.847 58.2016C159.722 58.0769 159.66 57.9054 159.66 57.6872V44.8264C159.66 44.6705 159.582 44.5926 159.426 44.5926H155.919C155.701 44.5926 155.529 44.5302 155.404 44.4055C155.28 44.2808 155.217 44.1093 155.217 43.8911V43.1896C155.217 42.9713 155.28 42.7998 155.404 42.6751C155.529 42.5504 155.701 42.4881 155.919 42.4881H165.623C165.841 42.4881 166.013 42.5504 166.137 42.6751C166.262 42.7998 166.324 42.9713 166.324 43.1896V43.8911C166.324 44.1093 166.262 44.2808 166.137 44.4055C166.013 44.5302 165.841 44.5926 165.623 44.5926H162.115C161.959 44.5926 161.881 44.6705 161.881 44.8264V57.6872C161.881 57.9054 161.819 58.0769 161.694 58.2016C161.57 58.3263 161.398 58.3887 161.18 58.3887H160.362ZM183.146 53.2444C183.146 54.0394 183.005 54.7721 182.725 55.4424C182.46 56.0971 182.078 56.6583 181.579 57.126C181.096 57.5936 180.519 57.96 179.849 58.225C179.178 58.49 178.446 58.6225 177.651 58.6225C176.856 58.6225 176.123 58.49 175.453 58.225C174.782 57.96 174.198 57.5936 173.699 57.126C173.216 56.6583 172.834 56.0971 172.553 55.4424C172.288 54.7721 172.155 54.0394 172.155 53.2444V47.6324C172.155 46.8374 172.288 46.1125 172.553 45.4577C172.834 44.7874 173.216 44.2184 173.699 43.7508C174.198 43.2831 174.782 42.9168 175.453 42.6518C176.123 42.3867 176.856 42.2542 177.651 42.2542C178.446 42.2542 179.178 42.3867 179.849 42.6518C180.519 42.9168 181.096 43.2831 181.579 43.7508C182.078 44.2184 182.46 44.7874 182.725 45.4577C183.005 46.1125 183.146 46.8374 183.146 47.6324V53.2444ZM180.924 47.6324C180.924 46.6971 180.644 45.9176 180.082 45.2941C179.521 44.6705 178.711 44.3587 177.651 44.3587C176.591 44.3587 175.78 44.6705 175.219 45.2941C174.657 45.9176 174.377 46.6971 174.377 47.6324V53.2444C174.377 54.1797 174.657 54.9591 175.219 55.5827C175.78 56.2062 176.591 56.518 177.651 56.518C178.711 56.518 179.521 56.2062 180.082 55.5827C180.644 54.9591 180.924 54.1797 180.924 53.2444V47.6324Z" fill="white"/>
<path d="M74.3789 38.4379C72.3353 38.4379 70.4669 38.1168 68.7737 37.4745C67.0805 36.8031 65.6208 35.8981 64.3947 34.7595C63.1685 33.5918 62.2052 32.2197 61.5045 30.6432C60.8331 29.0376 60.4973 27.2859 60.4973 25.3884C60.4973 22.7901 60.9352 20.44 61.811 18.3381C62.6868 16.2362 63.913 14.4408 65.4894 12.9519C67.0951 11.463 69.0073 10.3245 71.226 9.53623C73.4447 8.7188 75.897 8.31009 78.5828 8.31009C79.4002 8.31009 80.2906 8.39767 81.254 8.57284C82.2466 8.7188 83.2246 8.95235 84.1879 9.27348C85.1805 9.56542 86.1293 9.94494 87.0343 10.412C87.9685 10.8499 88.8151 11.3754 89.5742 11.9885L85.7644 17.6375C84.3923 16.8784 82.9764 16.3383 81.5167 16.0172C80.0862 15.6669 78.7579 15.4917 77.5318 15.4917C76.3057 15.4917 75.1671 15.7253 74.1161 16.1924C73.0652 16.6303 72.1456 17.2725 71.3573 18.1191C70.5983 18.9366 69.9998 19.9437 69.5619 21.1407C69.124 22.3084 68.9051 23.6367 68.9051 25.1256C68.9051 27.0816 69.5036 28.5997 70.7005 29.6798C71.8974 30.7308 73.4739 31.2563 75.4299 31.2563C76.4808 31.2563 77.4004 31.1103 78.1887 30.8184C79.0061 30.5264 79.7359 30.1615 80.3782 29.7236L80.8599 26.8772H75.4299L76.5246 20.659H90.2748L88.0853 33.1831C87.3846 33.9129 86.5672 34.5989 85.633 35.2412C84.728 35.8835 83.7062 36.4381 82.5677 36.9052C81.4291 37.3723 80.1738 37.7373 78.8017 38C77.4588 38.2919 75.9845 38.4379 74.3789 38.4379ZM118.934 16.5865C118.934 18.1629 118.715 19.535 118.277 20.7028C117.84 21.8705 117.241 22.8777 116.482 23.7243C115.752 24.5709 114.891 25.2716 113.898 25.8263C112.935 26.3517 111.928 26.7459 110.877 27.0086L116.876 38H107.593L102.6 27.6655H100.542L98.7469 38H90.4267L95.5502 8.748H108.206C110.074 8.748 111.68 8.93776 113.023 9.31727C114.365 9.69679 115.475 10.2369 116.351 10.9375C117.226 11.6382 117.869 12.4702 118.277 13.4336C118.715 14.397 118.934 15.4479 118.934 16.5865ZM110.395 17.6812C110.395 16.8054 110.059 16.1778 109.388 15.7983C108.717 15.4187 107.607 15.229 106.06 15.229H102.732L101.681 21.2721H105.578C107.359 21.2721 108.6 20.9801 109.3 20.3963C110.03 19.7832 110.395 18.8782 110.395 17.6812ZM131.868 38.4379C128.043 38.4379 125.109 37.6497 123.066 36.0732C121.022 34.4676 120 32.0591 120 28.8478C120 27.9428 120.088 26.9356 120.263 25.8263L123.241 8.748H131.561L128.496 26.2642C128.408 26.7605 128.364 27.213 128.364 27.6217C128.364 30.0447 129.853 31.2563 132.831 31.2563C134.553 31.2563 135.838 30.8622 136.684 30.0739C137.56 29.2565 138.159 27.9866 138.48 26.2642L141.545 8.748H149.865L146.712 26.7021C146.304 28.95 145.749 30.833 145.048 32.351C144.348 33.8399 143.414 35.0368 142.246 35.9419C141.078 36.8469 139.648 37.4891 137.954 37.8686C136.261 38.2481 134.232 38.4379 131.868 38.4379ZM177.266 17.0682C177.266 20.8925 176.157 23.7827 173.938 25.7387C171.719 27.6655 168.508 28.6288 164.304 28.6288H158.699L157.079 38H148.759L153.882 8.748H166.713C170.216 8.748 172.843 9.50703 174.595 11.0251C176.376 12.5432 177.266 14.5575 177.266 17.0682ZM168.727 18.1191C168.727 17.0098 168.362 16.2508 167.632 15.842C166.902 15.4333 165.881 15.229 164.567 15.229H161.064L159.838 22.1479H163.91C165.487 22.1479 166.684 21.8267 167.501 21.1845C168.318 20.5422 168.727 19.5204 168.727 18.1191ZM191.513 38.4379C189.47 38.4379 187.601 38.1168 185.908 37.4745C184.215 36.8031 182.755 35.8981 181.529 34.7595C180.303 33.5918 179.339 32.2197 178.639 30.6432C177.967 29.0376 177.632 27.2859 177.632 25.3884C177.632 22.7901 178.069 20.44 178.945 18.3381C179.821 16.2362 181.047 14.4408 182.624 12.9519C184.229 11.463 186.142 10.3245 188.36 9.53623C190.579 8.7188 193.031 8.31009 195.717 8.31009C197.761 8.31009 199.629 8.64582 201.322 9.31727C203.015 9.95953 204.475 10.8645 205.701 12.0323C206.927 13.1708 207.876 14.5429 208.548 16.1486C209.248 17.7542 209.599 19.4912 209.599 21.3596C209.599 23.9579 209.161 26.308 208.285 28.4099C207.409 30.5118 206.168 32.3072 204.563 33.7961C202.986 35.285 201.089 36.4381 198.87 37.2556C196.651 38.0438 194.199 38.4379 191.513 38.4379ZM192.564 31.2563C193.79 31.2563 194.929 31.0373 195.98 30.5994C197.031 30.1323 197.936 29.4901 198.695 28.6726C199.483 27.826 200.096 26.8188 200.534 25.6511C200.972 24.4542 201.191 23.1113 201.191 21.6224C201.191 19.6664 200.592 18.1629 199.395 17.112C198.198 16.0318 196.622 15.4917 194.666 15.4917C193.44 15.4917 192.301 15.7253 191.25 16.1924C190.199 16.6303 189.28 17.2725 188.492 18.1191C187.733 18.9366 187.134 19.9437 186.696 21.1407C186.258 22.3084 186.039 23.6367 186.039 25.1256C186.039 27.0816 186.638 28.5997 187.835 29.6798C189.032 30.7308 190.608 31.2563 192.564 31.2563Z" fill="white"/>
</g>
<defs>
<clipPath id="clip0_890_2648">
<rect width="216" height="69" fill="white" transform="translate(0.5)"/>
</clipPath>
</defs>
</svg>
