<?xml version="1.0" encoding="UTF-8"?>
<!DOCTYPE svg PUBLIC "-//W3C//DTD SVG 1.1//EN" "http://www.w3.org/Graphics/SVG/1.1/DTD/svg11.dtd">
<!-- Creator: CorelDRAW -->
<svg xmlns="http://www.w3.org/2000/svg" xml:space="preserve" width="297mm" height="210mm" version="1.1" style="shape-rendering:geometricPrecision; text-rendering:geometricPrecision; image-rendering:optimizeQuality; fill-rule:evenodd; clip-rule:evenodd"
viewBox="0 0 29700 21000"
 xmlns:xlink="http://www.w3.org/1999/xlink"
 xmlns:xodm="http://www.corel.com/coreldraw/odm/2003">
 <defs>
  <style type="text/css">
   <![CDATA[
    .str0 {stroke:#446BB2;stroke-width:150;stroke-miterlimit:22.9256}
    .fil0 {fill:#446BB2;fill-rule:nonzero}
   ]]>
  </style>
 </defs>
 <g id="Camada_x0020_1">
  <metadata id="CorelCorpID_0Corel-Layer"/>
  <path class="fil0" d="M13262.4 12789.08c0,103.53 -17.27,197.93 -51.78,283.22 -34.49,83.23 -83.21,155.32 -146.18,216.22 -60.9,58.87 -134.99,104.54 -222.32,137.04 -85.26,32.52 -179.67,48.74 -283.22,48.74 -99.51,0 -190.86,-17.28 -274.1,-51.77 -83.23,-36.54 -155.32,-86.27 -216.22,-149.24 -60.9,-64.94 -108.64,-142.12 -143.13,-231.45 -32.52,-91.37 -48.74,-190.86 -48.74,-298.45l0 -670.01c0,-105.58 17.28,-203.05 51.77,-292.37 36.54,-91.35 85.29,-168.49 146.19,-231.44 62.95,-64.96 137.05,-115.73 222.31,-152.27 85.29,-36.56 177.64,-54.83 277.13,-54.83 67.02,0 127.92,7.09 182.75,21.32 54.81,12.18 104.53,28.4 149.21,48.72 44.69,20.32 83.24,43.64 115.74,70.05 34.49,24.36 62.95,47.74 85.28,70.05 42.63,42.63 42.63,85.28 0,127.91l-70.05 70.04c-20.32,20.32 -39.59,31.46 -57.86,33.51 -18.27,0 -39.6,-11.2 -63.96,-33.51 -26.41,-24.36 -67.01,-52.76 -121.82,-85.28 -52.78,-32.5 -125.86,-48.72 -219.29,-48.72 -64.94,0 -122.8,12.18 -173.57,36.54 -48.75,22.33 -91.38,54.83 -127.92,97.46 -34.49,40.58 -60.9,89.32 -79.19,146.19 -18.27,54.81 -27.39,113.68 -27.39,176.63l0 670.01c0,136.05 33.48,246.68 100.49,331.96 66.99,83.21 164.46,124.86 292.37,124.86 138.04,0 241.59,-37.55 310.63,-112.68 69.05,-77.14 103.56,-176.65 103.56,-298.45l0 -24.39c0,-16.21 -2.06,-27.39 -6.09,-33.48 -4.04,-6.09 -11.2,-11.2 -21.33,-15.24l-526.86 -298.45c-22.31,-14.23 -37.55,-32.5 -45.69,-54.81 -6.09,-22.33 -2.05,-45.69 12.18,-70.05l45.69 -79.19c12.18,-24.36 29.46,-39.59 51.77,-45.68 24.36,-8.15 47.74,-5.09 70.05,9.14l645.63 371.54c26.41,16.24 43.63,32.52 51.77,48.74 8.15,14.23 12.19,35.53 12.19,63.95l0 127.92zm2301.77 654.77c-20.28,16.22 -43.64,23.36 -70.05,21.31 -24.36,-2.05 -47.67,-9.13 -70.05,-21.31l-886.24 -517.74c-14.16,-8.14 -27.39,-8.14 -39.57,0 -10.15,8.14 -17.23,18.27 -21.33,30.45l-124.85 414.19c-14.19,48.72 -48.75,73.1 -103.56,73.1l-149.23 0c-58.85,0 -80.18,-28.42 -63.96,-85.28l609.11 -1903.43c10.17,-32.5 23.36,-53.8 39.58,-63.93 18.27,-12.2 41.64,-18.29 70.04,-18.29l213.2 0c28.46,0 50.77,6.09 66.99,18.29 18.27,10.13 32.5,31.43 42.63,63.93l581.69 1821.2c14.23,46.67 6.09,83.23 -24.36,109.65l-70.04 57.86zm-673.05 -1684.14c-6.09,-22.33 -16.22,-33.51 -30.45,-33.51 -14.19,0 -24.38,11.18 -30.47,33.51l-240.59 803.99c-8.08,26.41 -9.12,46.69 -3.03,60.9 6.09,12.2 16.28,22.33 30.45,30.47l572.54 335c22.38,14.23 38.6,16.22 48.73,6.09 10.19,-12.18 13.22,-25.37 9.14,-39.6l-356.32 -1196.85zm1766.58 1684.14c-28.4,0 -50.71,-8.14 -66.99,-24.38 -16.22,-16.22 -24.36,-38.59 -24.36,-66.99l0 -1888.19c0,-28.4 8.14,-50.77 24.36,-66.99 16.28,-16.24 38.59,-24.38 66.99,-24.38l106.61 0c28.46,0 50.77,8.14 66.99,24.38 16.28,16.22 24.36,38.59 24.36,66.99l0 1675.02c0,20.32 10.19,30.45 30.45,30.45l831.43 0c28.46,0 50.77,8.14 66.99,24.36 16.28,16.22 24.36,38.59 24.36,66.99l0 91.37c0,28.4 -8.08,50.77 -24.36,66.99 -16.22,16.24 -38.53,24.38 -66.99,24.38l-1059.84 0zm3393.21 0c-20.32,16.22 -43.68,23.36 -70.05,21.31 -24.36,-2.05 -47.74,-9.13 -70.04,-21.31l-886.22 -517.74c-14.23,-8.14 -27.42,-8.14 -39.6,0 -10.19,8.14 -17.29,18.27 -21.32,30.45l-124.86 414.19c-14.23,48.72 -48.74,73.1 -103.55,73.1l-149.22 0c-58.93,0 -80.24,-28.42 -63.96,-85.28l609.09 -1903.43c10.13,-32.5 23.32,-53.8 39.6,-63.93 18.27,-12.2 41.58,-18.29 70.05,-18.29l213.17 0c28.4,0 50.73,6.09 66.99,18.29 18.29,10.13 32.46,31.43 42.65,63.93l581.67 1821.2c14.19,46.67 6.09,83.23 -24.36,109.65l-70.04 57.86zm-673.05 -1684.14c-6.09,-22.33 -16.28,-33.51 -30.45,-33.51 -14.23,0 -24.36,11.18 -30.45,33.51l-240.61 803.99c-8.14,26.41 -9.12,46.69 -3.03,60.9 6.09,12.2 16.22,22.33 30.45,30.47l572.55 335c22.31,14.23 38.55,16.22 48.72,6.09 10.15,-12.18 13.18,-25.37 9.14,-39.6l-356.32 -1196.85zm2908.64 1349.13c20.26,20.32 29.41,42.65 27.42,67.01 -2.05,24.36 -11.2,44.68 -27.42,60.9 -65,64.96 -141.13,120.82 -228.4,167.51 -87.34,46.67 -200.01,70.04 -338.06,70.04 -99.49,0 -191.86,-17.28 -277.12,-51.77 -85.29,-36.54 -159.43,-86.27 -222.32,-149.24 -60.92,-64.94 -109.64,-142.12 -146.19,-231.45 -34.55,-91.37 -51.77,-190.86 -51.77,-298.45l0 -670.01c0,-105.58 17.22,-203.05 51.77,-292.37 36.55,-91.35 85.27,-168.49 146.19,-231.44 62.89,-64.96 137.03,-115.73 222.32,-152.27 85.26,-36.56 177.63,-54.83 277.12,-54.83 67.02,0 127.92,7.09 182.73,21.32 54.83,12.18 104.55,28.4 149.24,48.72 44.61,20.32 83.23,43.64 115.73,70.05 34.49,24.36 62.89,47.74 85.26,70.05 42.65,42.63 42.65,85.28 0,127.91l-70.05 70.04c-20.32,20.32 -39.59,31.46 -57.86,33.51 -18.27,0 -39.58,-11.2 -63.96,-33.51 -26.41,-24.36 -66.99,-52.76 -121.8,-85.28 -52.84,-32.5 -125.93,-48.72 -219.29,-48.72 -65,0 -122.86,12.18 -173.59,36.54 -48.72,22.33 -91.35,54.83 -127.89,97.46 -34.56,40.58 -60.93,89.32 -79.2,146.19 -18.27,54.81 -27.41,113.68 -27.41,176.63l0 670.01c0,136.05 35.49,246.68 106.61,331.96 73.08,83.21 173.57,124.86 301.48,124.86 89.33,0 164.46,-16.22 225.38,-48.72 62.89,-34.51 113.68,-69.07 152.27,-103.56 18.27,-16.21 38.53,-25.36 60.9,-27.41 24.36,-2.05 46.69,7.09 67.01,27.41l60.9 60.91zm1475.62 335.01c-28.42,0 -50.77,-8.14 -67.01,-24.38 -16.22,-16.22 -24.36,-38.59 -24.36,-66.99l0 -1675c0,-20.34 -10.13,-30.47 -30.45,-30.47l-456.82 0c-28.42,0 -50.77,-8.14 -67.01,-24.36 -16.22,-16.22 -24.36,-38.59 -24.36,-66.99l0 -91.37c0,-28.4 8.14,-50.77 24.36,-66.99 16.24,-16.24 38.59,-24.38 67.01,-24.38l1263.87 0c28.39,0 50.77,8.14 66.99,24.38 16.24,16.22 24.38,38.59 24.38,66.99l0 91.37c0,28.4 -8.14,50.77 -24.38,66.99 -16.22,16.22 -38.6,24.36 -66.99,24.36l-456.82 0c-20.32,0 -30.45,10.13 -30.45,30.47l0 1675c0,28.4 -8.14,50.77 -24.38,66.99 -16.22,16.24 -38.59,24.38 -66.99,24.38l-106.59 0zm2967.45 -670.01c0,103.55 -18.29,198.94 -54.83,286.27 -34.55,85.29 -84.28,158.37 -149.22,219.27 -62.97,60.92 -138.1,108.66 -225.37,143.15 -87.31,34.49 -182.73,51.77 -286.28,51.77 -103.53,0 -199,-17.28 -286.27,-51.77 -87.31,-34.49 -163.45,-82.23 -228.41,-143.15 -62.95,-60.9 -112.68,-133.98 -149.22,-219.27 -34.55,-87.33 -51.77,-182.72 -51.77,-286.27l0 -730.91c0,-103.55 17.22,-197.96 51.77,-283.22 36.54,-87.33 86.27,-161.42 149.22,-222.32 64.96,-60.92 141.1,-108.66 228.41,-143.15 87.27,-34.49 182.74,-51.77 286.27,-51.77 103.55,0 198.97,17.28 286.28,51.77 87.27,34.49 162.4,82.23 225.37,143.15 64.94,60.9 114.67,134.99 149.22,222.32 36.54,85.26 54.83,179.67 54.83,283.22l0 730.91zm-289.33 -730.91c0,-121.82 -36.54,-223.32 -109.64,-304.55 -73.08,-81.24 -178.69,-121.82 -316.73,-121.82 -138.08,0 -243.62,40.58 -316.72,121.82 -73.08,81.23 -109.64,182.73 -109.64,304.55l0 730.91c0,121.82 36.56,223.32 109.64,304.55 73.1,81.24 178.64,121.82 316.72,121.82 138.04,0 243.65,-40.58 316.73,-121.82 73.1,-81.23 109.64,-182.73 109.64,-304.55l0 -730.91z"/>
  <path class="fil0" d="M11353.28 10953.75c-266.12,0 -509.48,-41.81 -730.04,-125.46 -220.47,-87.46 -410.63,-205.33 -570.33,-353.6 -159.68,-152.11 -285.16,-330.81 -376.41,-536.12 -87.44,-209.13 -131.18,-437.27 -131.18,-684.41 0,-338.38 57.03,-644.48 171.11,-918.24 114.06,-273.76 273.76,-507.59 479.07,-701.5 209.15,-193.9 458.21,-342.2 747.15,-444.85 288.97,-106.46 608.35,-159.7 958.15,-159.7 106.48,0 222.42,11.4 347.9,34.21 129.3,19.03 256.64,49.44 382.13,91.27 129.29,38.01 252.87,87.44 370.72,148.28 121.69,57.03 231.94,125.48 330.79,205.32l-496.19 735.73c-178.7,-98.87 -363.08,-169.21 -553.23,-211.02 -186.28,-45.62 -359.31,-68.44 -518.99,-68.44 -159.71,0 -307.98,30.41 -444.87,91.25 -136.87,57.03 -256.64,140.68 -359.31,250.95 -98.85,106.46 -176.8,237.64 -233.83,393.53 -57.03,152.08 -85.56,325.08 -85.56,518.99 0,254.76 77.96,452.47 233.83,593.15 155.94,136.89 361.26,205.32 615.98,205.32 136.87,0 256.64,-19 359.29,-57.03 106.48,-38.02 201.56,-85.55 285.19,-142.58l62.72 -370.72 -707.2 0 142.58 -809.87 1790.83 0 -285.16 1631.15c-91.25,95.06 -197.67,184.4 -319.39,268.05 -117.82,83.65 -250.94,155.89 -399.22,216.73 -148.29,60.84 -311.76,108.36 -490.49,142.58 -174.87,38.03 -366.91,57.03 -576.04,57.03zm5802.99 -2845.94c0,205.3 -28.51,384.01 -85.54,536.11 -57.05,152.09 -135,283.26 -233.85,393.51 -95.07,110.27 -207.25,201.52 -336.48,273.76 -125.48,68.46 -256.66,119.77 -393.53,154.01l781.35 1431.52 -1209.1 0 -650.19 -1345.99 -268.05 0 -233.85 1345.99 -1083.63 0 667.29 -3809.82 1648.27 0c243.31,0 452.45,24.71 627.36,74.14 174.88,49.44 319.39,119.78 433.47,211.02 114.05,91.27 197.66,199.63 250.94,325.1 57.03,125.48 85.54,262.35 85.54,410.65zm-1112.14 142.58c0,-114.08 -43.74,-195.82 -131.18,-245.26 -87.48,-49.43 -231.94,-74.14 -433.46,-74.14l-433.44 0 -136.89 787.06 507.61 0c231.88,0 393.53,-38.03 484.78,-114.06 95.01,-79.84 142.58,-197.73 142.58,-353.6zm2796.57 2703.36c-498.09,0 -880.19,-102.65 -1146.37,-307.98 -266.17,-209.11 -399.23,-522.8 -399.23,-941.05 0,-117.86 11.41,-249.04 34.22,-393.53l387.82 -2224.29 1083.63 0 -399.22 2281.34c-11.41,64.63 -17.12,123.56 -17.12,176.8 0,315.57 193.92,473.37 581.74,473.37 224.3,0 391.64,-51.33 501.89,-153.99 114.06,-106.46 192.04,-271.85 233.83,-496.18l399.25 -2281.34 1083.63 0 -410.65 2338.37c-53.2,292.76 -125.47,538.02 -216.71,735.73 -91.27,193.91 -212.92,349.81 -365.03,467.67 -152.1,117.87 -338.38,201.52 -558.92,250.95 -220.54,49.43 -484.78,74.13 -792.76,74.13zm5912.8 -2783.22c0,498.09 -144.46,874.52 -433.46,1129.26 -288.97,250.94 -707.2,376.43 -1254.72,376.43l-730.03 0 -211.02 1220.5 -1083.63 0 667.29 -3809.82 1671.06 0c456.27,0 798.47,98.86 1026.6,296.57 231.95,197.73 347.91,460.08 347.91,787.06zm-1112.16 136.89c0,-144.49 -47.5,-243.35 -142.58,-296.57 -95.08,-53.24 -228.14,-79.86 -399.22,-79.86l-456.28 0 -159.7 901.14 530.42 0c205.33,0 361.2,-41.84 467.68,-125.49 106.48,-83.65 159.68,-216.73 159.68,-399.22zm2967.68 2646.33c-266.12,0 -509.49,-41.81 -730.03,-125.46 -220.5,-87.46 -410.65,-205.33 -570.33,-353.6 -159.7,-152.11 -285.17,-330.81 -376.41,-536.12 -87.44,-209.13 -131.18,-437.27 -131.18,-684.41 0,-338.38 57.03,-644.48 171.09,-918.24 114.08,-273.76 273.76,-507.59 479.08,-701.5 209.14,-193.9 458.2,-342.2 747.13,-444.85 289,-106.46 608.38,-159.7 958.17,-159.7 266.17,0 509.54,43.74 730.02,131.17 220.56,83.65 410.65,201.52 570.33,353.6 159.7,148.3 283.28,327 370.72,536.12 91.26,209.13 136.89,435.36 136.89,678.69 0,338.41 -57.03,644.48 -171.11,918.24 -114.06,273.76 -275.64,507.61 -484.78,701.51 -205.32,193.92 -452.44,344.1 -741.44,450.56 -288.93,102.67 -608.31,153.99 -958.15,153.99zm136.87 -935.34c159.71,0 307.98,-28.52 444.87,-85.55 136.87,-60.84 254.76,-144.49 353.6,-250.95 102.65,-110.25 182.51,-241.43 239.54,-393.53 57.03,-155.87 85.56,-330.79 85.56,-524.71 0,-254.73 -77.92,-450.56 -233.85,-587.43 -155.87,-140.68 -361.18,-211.02 -615.96,-211.02 -159.68,0 -307.97,30.41 -444.84,91.25 -136.89,57.03 -256.66,140.68 -359.32,250.95 -98.84,106.46 -176.8,237.64 -233.85,393.53 -57.03,152.08 -85.53,325.08 -85.53,518.99 0,254.76 77.96,452.47 233.83,593.15 155.93,136.89 361.24,205.32 615.95,205.32z"/>
  <polygon class="fil0 str0" points="1977.99,10817.33 1313.52,10152.87 1313.52,14139.64 7826.33,14138.53 7826.33,10151.74 7161.86,10816.2 7161.86,13474.07 1977.99,13475.2 "/>
  <path class="fil0 str0" d="M7827.33 6139.87l0 2657.86 -664.46 664.46 0 -2657.86 -1152.8 0c-221.5,0 -332.23,110.73 -332.23,332.23l0 1550.42c0,55.37 55.35,110.75 110.73,110.75l110.75 0c55.35,0 110.75,-55.38 110.75,-110.75l0 -885.95 664.44 0 0 1273.55c0,193.8 -193.79,387.61 -387.59,387.61l-885.94 0c-193.82,0 -387.61,-193.81 -387.61,-387.61l0 -2547.13c0,-193.79 193.79,-387.58 387.61,-387.58l2426.35 0z"/>
  <path class="fil0 str0" d="M1314.22 6139.87l0 2657.86 664.46 664.46 0 -2657.86 1187.58 0c221.48,0 332.24,110.73 332.24,332.23l0 1550.42c0,55.37 -55.38,110.75 -110.76,110.75l-110.75 0c-55.35,0 -110.73,-55.38 -110.73,-110.75l0 -885.95 -664.46 0 0 1273.55c0,193.8 193.79,387.61 387.61,387.61l885.94 0c193.8,0 387.61,-193.81 387.61,-387.61l0 -2547.13c0,-193.79 -193.81,-387.58 -387.61,-387.58l-2461.13 0z"/>
 </g>
</svg>
