<svg width="111" height="38" viewBox="0 0 111 38" fill="none" xmlns="http://www.w3.org/2000/svg">
<g clip-path="url(#clip0_890_2659)">
<path d="M50.2564 29.3723C50.2564 29.7866 50.1874 30.1643 50.0493 30.5055C49.9112 30.8386 49.7162 31.127 49.4644 31.3707C49.2207 31.6063 48.9241 31.7891 48.5748 31.9191C48.2336 32.0491 47.8559 32.114 47.4416 32.114C47.0435 32.114 46.6779 32.045 46.3449 31.9069C46.0118 31.7607 45.7234 31.5616 45.4797 31.3098C45.236 31.0498 45.0451 30.7411 44.9069 30.3837C44.777 30.0181 44.712 29.6201 44.712 29.1895V26.5087C44.712 26.0862 44.781 25.6963 44.9191 25.3388C45.0654 24.9733 45.2603 24.6646 45.504 24.4127C45.7559 24.1528 46.0524 23.9497 46.3936 23.8034C46.7348 23.6572 47.1044 23.5841 47.5025 23.5841C47.7706 23.5841 48.0143 23.6125 48.2336 23.6694C48.453 23.7181 48.652 23.7831 48.8307 23.8644C49.0094 23.9456 49.1638 24.039 49.2938 24.1446C49.4319 24.2421 49.5456 24.3356 49.635 24.4249C49.8056 24.5955 49.8056 24.7661 49.635 24.9367L49.3547 25.217C49.2735 25.2982 49.1963 25.3429 49.1232 25.351C49.0501 25.351 48.9648 25.3063 48.8673 25.217C48.7617 25.1195 48.5992 25.0058 48.3799 24.8758C48.1686 24.7458 47.8762 24.6808 47.5025 24.6808C47.2425 24.6808 47.011 24.7296 46.8079 24.827C46.6129 24.9164 46.4423 25.0464 46.2961 25.217C46.158 25.3795 46.0524 25.5744 45.9793 25.8019C45.9062 26.0212 45.8696 26.2568 45.8696 26.5087V29.1895C45.8696 29.7338 46.0037 30.1765 46.2717 30.5177C46.5398 30.8508 46.9298 31.0173 47.4416 31.0173C47.994 31.0173 48.4083 30.867 48.6845 30.5665C48.9607 30.2578 49.0988 29.8597 49.0988 29.3723V29.2748C49.0988 29.2098 49.0907 29.1651 49.0744 29.1408C49.0582 29.1164 49.0298 29.0961 48.9891 29.0798L46.881 27.8856C46.7917 27.8288 46.7307 27.7557 46.6982 27.6663C46.6739 27.5769 46.6901 27.4835 46.747 27.386L46.9298 27.0692C46.9785 26.9717 47.0476 26.9108 47.1369 26.8864C47.2344 26.8539 47.3278 26.8661 47.4172 26.923L50.0005 28.4096C50.1062 28.4746 50.1752 28.5396 50.2077 28.6046C50.2402 28.6614 50.2564 28.7467 50.2564 28.8605V29.3723ZM59.4664 31.9922C59.3852 32.0572 59.2917 32.0856 59.1861 32.0775C59.0886 32.0694 58.9952 32.0409 58.9059 31.9922L55.3598 29.9206C55.303 29.8881 55.2502 29.8881 55.2014 29.9206C55.1608 29.9531 55.1324 29.9937 55.1161 30.0425L54.6165 31.6997C54.5596 31.8947 54.4215 31.9922 54.2022 31.9922H53.6051C53.3695 31.9922 53.2842 31.8785 53.3492 31.651L55.7863 24.035C55.827 23.905 55.8798 23.8197 55.9447 23.7791C56.0179 23.7303 56.1113 23.706 56.225 23.706H57.078C57.1917 23.706 57.2811 23.7303 57.3461 23.7791C57.4192 23.8197 57.4761 23.905 57.5167 24.035L59.8442 31.322C59.901 31.5088 59.8685 31.6551 59.7467 31.7607L59.4664 31.9922ZM56.7734 25.2535C56.749 25.1642 56.7084 25.1195 56.6515 25.1195C56.5946 25.1195 56.554 25.1642 56.5297 25.2535L55.567 28.4705C55.5345 28.5761 55.5304 28.6574 55.5548 28.7143C55.5792 28.763 55.6198 28.8036 55.6767 28.8361L57.9676 30.1765C58.0569 30.2334 58.1219 30.2415 58.1625 30.2009C58.2032 30.1522 58.2153 30.0994 58.1991 30.0425L56.7734 25.2535ZM63.842 31.9922C63.7283 31.9922 63.6389 31.9597 63.5739 31.8947C63.5089 31.8297 63.4764 31.7404 63.4764 31.6266V24.0715C63.4764 23.9578 63.5089 23.8684 63.5739 23.8034C63.6389 23.7385 63.7283 23.706 63.842 23.706H64.2685C64.3822 23.706 64.4716 23.7385 64.5366 23.8034C64.6016 23.8684 64.6341 23.9578 64.6341 24.0715V30.7736C64.6341 30.8549 64.6747 30.8955 64.7559 30.8955H68.0826C68.1963 30.8955 68.2857 30.928 68.3507 30.993C68.4157 31.058 68.4482 31.1473 68.4482 31.261V31.6266C68.4482 31.7404 68.4157 31.8297 68.3507 31.8947C68.2857 31.9597 68.1963 31.9922 68.0826 31.9922H63.842ZM77.4188 31.9922C77.3375 32.0572 77.2441 32.0856 77.1385 32.0775C77.041 32.0694 76.9476 32.0409 76.8582 31.9922L73.3122 29.9206C73.2554 29.8881 73.2026 29.8881 73.1538 29.9206C73.1132 29.9531 73.0848 29.9937 73.0685 30.0425L72.5689 31.6997C72.512 31.8947 72.3739 31.9922 72.1546 31.9922H71.5575C71.3219 31.9922 71.2366 31.8785 71.3016 31.651L73.7387 24.035C73.7793 23.905 73.8321 23.8197 73.8971 23.7791C73.9702 23.7303 74.0637 23.706 74.1774 23.706H75.0304C75.1441 23.706 75.2335 23.7303 75.2985 23.7791C75.3716 23.8197 75.4285 23.905 75.4691 24.035L77.7965 31.322C77.8534 31.5088 77.8209 31.6551 77.699 31.7607L77.4188 31.9922ZM74.7258 25.2535C74.7014 25.1642 74.6608 25.1195 74.6039 25.1195C74.547 25.1195 74.5064 25.1642 74.482 25.2535L73.5194 28.4705C73.4869 28.5761 73.4828 28.6574 73.5072 28.7143C73.5316 28.763 73.5722 28.8036 73.629 28.8361L75.9199 30.1765C76.0093 30.2334 76.0743 30.2415 76.1149 30.2009C76.1555 30.1522 76.1677 30.0994 76.1515 30.0425L74.7258 25.2535ZM86.364 30.6518C86.4452 30.733 86.4818 30.8224 86.4737 30.9199C86.4655 31.0173 86.429 31.0986 86.364 31.1636C86.104 31.4235 85.7994 31.6469 85.4501 31.8338C85.1007 32.0206 84.6499 32.114 84.0975 32.114C83.6994 32.114 83.3298 32.045 82.9886 31.9069C82.6474 31.7607 82.3509 31.5616 82.099 31.3098C81.8553 31.0498 81.6603 30.7411 81.5141 30.3837C81.376 30.0181 81.307 29.6201 81.307 29.1895V26.5087C81.307 26.0862 81.376 25.6963 81.5141 25.3388C81.6603 24.9733 81.8553 24.6646 82.099 24.4127C82.3509 24.1528 82.6474 23.9497 82.9886 23.8034C83.3298 23.6572 83.6994 23.5841 84.0975 23.5841C84.3655 23.5841 84.6093 23.6125 84.8286 23.6694C85.0479 23.7181 85.247 23.7831 85.4257 23.8644C85.6044 23.9456 85.7588 24.039 85.8887 24.1446C86.0269 24.2421 86.1406 24.3356 86.2299 24.4249C86.4005 24.5955 86.4005 24.7661 86.2299 24.9367L85.9497 25.217C85.8684 25.2982 85.7913 25.3429 85.7181 25.351C85.645 25.351 85.5597 25.3063 85.4623 25.217C85.3566 25.1195 85.1942 25.0058 84.9748 24.8758C84.7636 24.7458 84.4712 24.6808 84.0975 24.6808C83.8375 24.6808 83.606 24.7296 83.4029 24.827C83.2079 24.9164 83.0373 25.0464 82.8911 25.217C82.753 25.3795 82.6474 25.5744 82.5743 25.8019C82.5011 26.0212 82.4646 26.2568 82.4646 26.5087V29.1895C82.4646 29.7338 82.6068 30.1765 82.8911 30.5177C83.1835 30.8508 83.5857 31.0173 84.0975 31.0173C84.4549 31.0173 84.7555 30.9523 84.9992 30.8224C85.251 30.6843 85.4541 30.5462 85.6085 30.4081C85.6816 30.3431 85.7628 30.3065 85.8522 30.2984C85.9497 30.2903 86.039 30.3268 86.1203 30.4081L86.364 30.6518ZM92.2683 31.9922C92.1546 31.9922 92.0652 31.9597 92.0002 31.8947C91.9352 31.8297 91.9027 31.7404 91.9027 31.6266V24.9245C91.9027 24.8433 91.8621 24.8027 91.7809 24.8027H89.953C89.8393 24.8027 89.7499 24.7702 89.6849 24.7052C89.62 24.6402 89.5875 24.5508 89.5875 24.4371V24.0715C89.5875 23.9578 89.62 23.8684 89.6849 23.8034C89.7499 23.7385 89.8393 23.706 89.953 23.706H95.0101C95.1238 23.706 95.2132 23.7385 95.2782 23.8034C95.3431 23.8684 95.3756 23.9578 95.3756 24.0715V24.4371C95.3756 24.5508 95.3431 24.6402 95.2782 24.7052C95.2132 24.7702 95.1238 24.8027 95.0101 24.8027H93.1822C93.101 24.8027 93.0604 24.8433 93.0604 24.9245V31.6266C93.0604 31.7404 93.0279 31.8297 92.9629 31.8947C92.8979 31.9597 92.8085 31.9922 92.6948 31.9922H92.2683ZM104.142 29.3113C104.142 29.7257 104.069 30.1075 103.922 30.4568C103.784 30.798 103.585 31.0905 103.325 31.3342C103.073 31.5779 102.773 31.7688 102.424 31.9069C102.074 32.045 101.692 32.114 101.278 32.114C100.864 32.114 100.482 32.045 100.133 31.9069C99.7833 31.7688 99.4786 31.5779 99.2187 31.3342C98.9668 31.0905 98.7678 30.798 98.6216 30.4568C98.4835 30.1075 98.4144 29.7257 98.4144 29.3113V26.3868C98.4144 25.9725 98.4835 25.5947 98.6216 25.2535C98.7678 24.9042 98.9668 24.6077 99.2187 24.364C99.4786 24.1203 99.7833 23.9294 100.133 23.7913C100.482 23.6532 100.864 23.5841 101.278 23.5841C101.692 23.5841 102.074 23.6532 102.424 23.7913C102.773 23.9294 103.073 24.1203 103.325 24.364C103.585 24.6077 103.784 24.9042 103.922 25.2535C104.069 25.5947 104.142 25.9725 104.142 26.3868V29.3113ZM102.984 26.3868C102.984 25.8994 102.838 25.4932 102.545 25.1682C102.253 24.8433 101.83 24.6808 101.278 24.6808C100.726 24.6808 100.303 24.8433 100.011 25.1682C99.7183 25.4932 99.5721 25.8994 99.5721 26.3868V29.3113C99.5721 29.7988 99.7183 30.205 100.011 30.5299C100.303 30.8549 100.726 31.0173 101.278 31.0173C101.83 31.0173 102.253 30.8549 102.545 30.5299C102.838 30.205 102.984 29.7988 102.984 29.3113V26.3868Z" fill="white"/>
<path d="M39.9786 20.1501C38.9136 20.1501 37.94 19.9827 37.0576 19.648C36.1752 19.2981 35.4145 18.8265 34.7755 18.2332C34.1366 17.6246 33.6345 16.9096 33.2694 16.0881C32.9195 15.2513 32.7445 14.3385 32.7445 13.3496C32.7445 11.9956 32.9727 10.7709 33.4291 9.67553C33.8855 8.58016 34.5245 7.64452 35.346 6.86863C36.1828 6.09274 37.1793 5.49941 38.3355 5.08864C39.4917 4.66266 40.7697 4.44967 42.1693 4.44967C42.5953 4.44967 43.0593 4.49531 43.5614 4.58659C44.0786 4.66266 44.5883 4.78437 45.0903 4.95172C45.6076 5.10385 46.102 5.30163 46.5737 5.54505C47.0605 5.77325 47.5017 6.0471 47.8972 6.36658L45.9119 9.31041C45.1968 8.91485 44.459 8.6334 43.6983 8.46605C42.9528 8.28349 42.2606 8.19221 41.6216 8.19221C40.9827 8.19221 40.3893 8.31392 39.8417 8.55734C39.294 8.78554 38.8147 9.12024 38.404 9.56143C38.0084 9.98741 37.6965 10.5123 37.4683 11.136C37.2401 11.7446 37.126 12.4368 37.126 13.2127C37.126 14.232 37.4379 15.0231 38.0617 15.586C38.6854 16.1337 39.507 16.4075 40.5263 16.4075C41.074 16.4075 41.5532 16.3315 41.9639 16.1793C42.3899 16.0272 42.7703 15.837 43.105 15.6088L43.356 14.1255H40.5263L41.0968 10.885H48.2624L47.1213 17.4116C46.7562 17.792 46.3302 18.1495 45.8434 18.4842C45.3718 18.8189 44.8393 19.1079 44.246 19.3514C43.6527 19.5948 42.9985 19.785 42.2834 19.9219C41.5836 20.074 40.8153 20.1501 39.9786 20.1501ZM63.1976 8.76272C63.1976 9.58425 63.0835 10.2993 62.8553 10.9078C62.6271 11.5164 62.3152 12.0412 61.9196 12.4824C61.5393 12.9236 61.0905 13.2888 60.5732 13.5778C60.0712 13.8517 59.5463 14.057 58.9986 14.194L62.125 19.9219H57.2871L54.6856 14.5363H53.613L52.6774 19.9219H48.3415L51.0115 4.67787H57.6066C58.5803 4.67787 59.417 4.77676 60.1168 4.97454C60.8167 5.17232 61.3948 5.45377 61.8512 5.81889C62.3076 6.18402 62.6423 6.6176 62.8553 7.11965C63.0835 7.6217 63.1976 8.16939 63.1976 8.76272ZM58.7476 9.33323C58.7476 8.87682 58.5727 8.54973 58.2227 8.35195C57.8728 8.15418 57.2947 8.05529 56.4884 8.05529H54.754L54.2064 11.2045H56.2374C57.1654 11.2045 57.812 11.0524 58.1771 10.7481C58.5574 10.4286 58.7476 9.95698 58.7476 9.33323ZM69.9374 20.1501C67.9445 20.1501 66.4155 19.7393 65.3505 18.9178C64.2856 18.081 63.7531 16.8259 63.7531 15.1524C63.7531 14.6808 63.7988 14.1559 63.89 13.5778L65.4418 4.67787H69.7777L68.1803 13.806C68.1346 14.0646 68.1118 14.3005 68.1118 14.5134C68.1118 15.7762 68.8877 16.4075 70.4395 16.4075C71.3371 16.4075 72.0065 16.2022 72.4477 15.7914C72.9041 15.3654 73.216 14.7036 73.3833 13.806L74.9807 4.67787H79.3166L77.6735 14.0342C77.4605 15.2057 77.1715 16.1869 76.8064 16.978C76.4412 17.7539 75.9544 18.3777 75.3459 18.8493C74.7373 19.3209 73.9918 19.6556 73.1095 19.8534C72.2271 20.0512 71.1697 20.1501 69.9374 20.1501ZM93.5959 9.01374C93.5959 11.0067 93.0178 12.5129 91.8616 13.5322C90.7053 14.5363 89.0318 15.0383 86.8411 15.0383H83.9201L83.0757 19.9219H78.7399L81.4098 4.67787H88.0962C89.9218 4.67787 91.2911 5.07343 92.2039 5.86453C93.1319 6.65564 93.5959 7.70538 93.5959 9.01374ZM89.1459 9.56143C89.1459 8.98332 88.9558 8.58776 88.5754 8.37477C88.1951 8.16178 87.6626 8.05529 86.978 8.05529H85.1524L84.5134 11.6609H86.6357C87.4572 11.6609 88.081 11.4936 88.507 11.1589C88.9329 10.8242 89.1459 10.2917 89.1459 9.56143ZM101.02 20.1501C99.9554 20.1501 98.9817 19.9827 98.0994 19.648C97.217 19.2981 96.4563 18.8265 95.8173 18.2332C95.1784 17.6246 94.6763 16.9096 94.3112 16.0881C93.9613 15.2513 93.7863 14.3385 93.7863 13.3496C93.7863 11.9956 94.0145 10.7709 94.4709 9.67553C94.9273 8.58016 95.5663 7.64452 96.3878 6.86863C97.2246 6.09274 98.2211 5.49941 99.3773 5.08864C100.534 4.66266 101.811 4.44967 103.211 4.44967C104.276 4.44967 105.25 4.62463 106.132 4.97454C107.015 5.30924 107.775 5.78086 108.414 6.3894C109.053 6.98273 109.548 7.69777 109.897 8.53451C110.263 9.37126 110.445 10.2765 110.445 11.2501C110.445 12.6041 110.217 13.8288 109.761 14.9242C109.304 16.0196 108.658 16.9552 107.821 17.7311C106.999 18.507 106.01 19.1079 104.854 19.5339C103.698 19.9447 102.42 20.1501 101.02 20.1501ZM101.568 16.4075C102.207 16.4075 102.8 16.2934 103.348 16.0652C103.896 15.8218 104.367 15.4871 104.763 15.0611C105.174 14.6199 105.493 14.0951 105.721 13.4865C105.95 12.8628 106.064 12.163 106.064 11.3871C106.064 10.3678 105.752 9.58425 105.128 9.03656C104.504 8.47366 103.683 8.19221 102.663 8.19221C102.024 8.19221 101.431 8.31392 100.883 8.55734C100.336 8.78554 99.8565 9.12024 99.4458 9.56143C99.0502 9.98741 98.7383 10.5123 98.5101 11.136C98.2819 11.7446 98.1678 12.4368 98.1678 13.2127C98.1678 14.232 98.4797 15.0231 99.1035 15.586C99.7272 16.1337 100.549 16.4075 101.568 16.4075Z" fill="white"/>
<path d="M5.31689 19.5532L2.6582 16.8945V32.8466H26.5863V16.8945L23.9277 19.5532V30.1879H5.31689V19.5532Z" fill="#0C50F1"/>
<path d="M26.5874 3.60156V14.2363L23.9287 16.895V6.26024H19.9407C19.0545 6.26024 18.6114 6.70336 18.6114 7.58959V13.7932C18.6114 14.0147 18.8329 14.2363 19.0545 14.2363H19.4976C19.7191 14.2363 19.9407 14.0147 19.9407 13.7932V10.2483H22.5994V15.3441C22.5994 16.1195 21.8239 16.895 21.0485 16.895H17.5036C16.7281 16.895 15.9527 16.1195 15.9527 15.3441V5.15246C15.9527 4.37701 16.7281 3.60156 17.5036 3.60156H26.5874Z" fill="#0C50F1"/>
<path d="M2.6582 3.60156V14.2363L5.31689 16.895V6.26024H9.30491C10.1911 6.26024 10.6343 6.70336 10.6343 7.58959V13.7932C10.6343 14.0147 10.4127 14.2363 10.1911 14.2363H9.74802C9.52647 14.2363 9.30491 14.0147 9.30491 13.7932V10.2483H6.64623V15.3441C6.64623 16.1195 7.42168 16.895 8.19713 16.895H11.742C12.5175 16.895 13.2929 16.1195 13.2929 15.3441V5.15246C13.2929 4.37701 12.5175 3.60156 11.742 3.60156H2.6582Z" fill="#0C50F1"/>
</g>
<defs>
<clipPath id="clip0_890_2659">
<rect width="111" height="36.1138" fill="white" transform="translate(0 0.943359)"/>
</clipPath>
</defs>
</svg>
